<?xml version="1.0" encoding="UTF-8"?>
<!DOCTYPE svg PUBLIC "-//W3C//DTD SVG 1.1//EN" "http://www.w3.org/Graphics/SVG/1.1/DTD/svg11.dtd">
<!-- Creator: CorelDRAW 2018 (64-Bit) -->
<svg xmlns="http://www.w3.org/2000/svg" xml:space="preserve" width="1507px" height="329px" version="1.1" style="shape-rendering:geometricPrecision; text-rendering:geometricPrecision; image-rendering:optimizeQuality; fill-rule:evenodd; clip-rule:evenodd"
viewBox="0 0 1588.96 346.36"
 xmlns:xlink="http://www.w3.org/1999/xlink">
 <defs>
  <style type="text/css">
   <![CDATA[
    .fil0 {fill:#D91720;fill-rule:nonzero}
    .fil1 {fill:#ECECEC;fill-rule:nonzero}
    .fil2 {fill:white;fill-rule:nonzero}
   ]]>
  </style>
 </defs>
 <g id="Layer_x0020_1">
  <metadata id="CorelCorpID_0Corel-Layer"/>
  <path class="fil0" d="M0 116.62l0 -44.39 32.06 0c0.59,-16.97 1.88,-29.19 3.94,-36.64 2.64,-9.99 9.04,-18.21 19.14,-24.79 7.57,-4.99 18.03,-8.22 31.47,-9.57 7.58,-0.82 18.5,-1.23 32.89,-1.23 9.87,0 20.26,0.18 31.3,0.59l0 41.28c-8.05,-0.18 -13.63,-0.29 -16.85,-0.29 -17.09,0 -28.19,2.34 -33.36,7.04 -3.17,3 -5.11,8.1 -5.81,15.33 -0.12,1.41 -0.24,4.17 -0.35,8.28l61.3 0 0 44.39 -61.3 0 0 122.26 -62.37 0 0 -122.26 -32.06 0z"/>
  <path id="1" class="fil0" d="M286.21 68c31.89,0 55.91,1.7 72.06,5.17 17.38,3.64 29.59,12.27 36.58,25.95 3.93,7.52 6.22,15.56 6.87,24.02 0.7,7.93 1.06,17.62 1.06,29.07 0,22.66 -1.12,38.34 -3.29,46.92 -4.7,18.9 -16.03,31.3 -34,37.29 -13.68,4.46 -40.46,6.69 -80.45,6.69 -35.35,0 -60.54,-1.76 -75.69,-5.34 -18.21,-4.23 -30.31,-14.16 -36.29,-29.72 -2.71,-7.34 -4.41,-15.03 -4.94,-23.02 -0.7,-9.86 -1.06,-20.78 -1.06,-32.82 0,-20.97 1.3,-35.59 3.94,-43.81 5.75,-17.32 17.62,-28.66 35.59,-34.06 14.44,-4.23 40.98,-6.34 79.62,-6.34zm-1.35 46.86c-20.14,0 -33.82,1.59 -41.05,4.81 -5.69,2.65 -9.57,7.11 -11.62,13.45 -1.82,5.35 -2.76,13.33 -2.76,23.9 0,11.69 1.11,19.85 3.29,24.43 3.05,6.29 10.21,10.57 21.43,12.74 7.52,1.35 17.97,2.06 31.36,2.06 21.84,0 36.35,-2.12 43.39,-6.34 4.82,-2.88 8.05,-7.28 9.63,-13.27 1.24,-4.7 1.88,-11.92 1.88,-21.67 0,-12.74 -1.41,-21.61 -4.28,-26.54 -3.23,-5.7 -10.34,-9.58 -21.44,-11.51 -7.81,-1.36 -17.73,-2.06 -29.83,-2.06z"/>
  <path id="2" class="fil0" d="M448.4 33.82l62.37 0 0 38.41 98.65 0 0 44.39 -98.65 0 0 48.51c0,13.09 0.94,21.31 2.76,24.6 3.11,5.76 10.45,8.63 22.02,8.63 12.04,0 19.49,-2.76 22.37,-8.28 1.53,-2.76 2.29,-7.04 2.41,-12.92 0,-0.99 0,-4.28 0,-9.8l57.02 0c-0.24,14.91 -1.18,26.13 -2.76,33.59 -1.59,7.81 -4.94,14.79 -9.93,20.96 -4.99,6.23 -10.98,10.75 -17.97,13.62 -7.92,3.35 -16.38,5.41 -25.31,6.23 -9.51,0.88 -19.84,1.35 -31,1.35 -23.55,0 -40.64,-1.7 -51.32,-5.17 -7.34,-2.41 -13.63,-6.4 -18.8,-11.98 -5.16,-5.52 -8.39,-11.86 -9.8,-19.02 -1.35,-6.99 -2.06,-20.91 -2.06,-41.81l0 -48.51 -32.76 0 0 -44.39 32.76 0 0 -38.41z"/>
  <path id="3" class="fil0" d="M751.12 68c31.88,0 55.9,1.7 72.05,5.17 17.38,3.64 29.6,12.27 36.58,25.95 3.94,7.52 6.23,15.56 6.87,24.02 0.71,7.93 1.06,17.62 1.06,29.07 0,22.66 -1.12,38.34 -3.29,46.92 -4.7,18.9 -16.03,31.3 -34,37.29 -13.68,4.46 -40.46,6.69 -80.45,6.69 -35.35,0 -60.54,-1.76 -75.69,-5.34 -18.2,-4.23 -30.3,-14.16 -36.29,-29.72 -2.7,-7.34 -4.41,-15.03 -4.93,-23.02 -0.71,-9.86 -1.06,-20.78 -1.06,-32.82 0,-20.97 1.29,-35.59 3.93,-43.81 5.76,-17.32 17.62,-28.66 35.59,-34.06 14.44,-4.23 40.99,-6.34 79.63,-6.34zm-1.35 46.86c-20.15,0 -33.83,1.59 -41.05,4.81 -5.7,2.65 -9.57,7.11 -11.63,13.45 -1.82,5.35 -2.76,13.33 -2.76,23.9 0,11.69 1.12,19.85 3.29,24.43 3.05,6.29 10.22,10.57 21.43,12.74 7.52,1.35 17.97,2.06 31.36,2.06 21.85,0 36.35,-2.12 43.4,-6.34 4.81,-2.88 8.04,-7.28 9.63,-13.27 1.23,-4.7 1.88,-11.92 1.88,-21.67 0,-12.74 -1.41,-21.61 -4.29,-26.54 -3.23,-5.7 -10.33,-9.58 -21.43,-11.51 -7.81,-1.36 -17.74,-2.06 -29.83,-2.06z"/>
  <path id="4" class="fil0" d="M891.34 72.23l58.49 0 0 25.01 3.35 0c8.93,-19.49 31.47,-29.24 67.59,-29.24 25.66,0 45.27,4.93 58.78,14.8 6.34,4.58 11.92,11.27 16.85,20.14 3.35,-8.28 7.75,-14.68 13.27,-19.26 6.52,-5.52 14.39,-9.51 23.55,-11.98 9.22,-2.47 20.91,-3.7 35.18,-3.7 22.6,0 40.28,3.11 53.02,9.28 6.87,3.46 12.92,8.22 18.21,14.27 5.28,6.11 8.98,12.56 11.04,19.43 3.11,10.22 4.63,26.9 4.63,50.04l0 77.86 -62.36 0 0 -77.86c0,-12.86 -0.59,-21.91 -1.7,-27.19 -2.64,-12.63 -16.15,-18.97 -40.46,-18.97 -18.2,0 -30.54,3.52 -37,10.51 -4.69,5.05 -7.57,13.04 -8.57,23.9 -0.47,4.93 -0.7,11.92 -0.7,20.85l0 68.76 -62.37 0 0 -77.86c0,-12.75 -0.41,-21.38 -1.17,-25.84 -1.65,-8.52 -6.58,-14.15 -14.8,-17.03 -6.4,-2.17 -14.74,-3.29 -25.07,-3.29 -18.68,0 -31.36,3.41 -38.11,10.16 -4.58,4.58 -7.46,12.39 -8.58,23.43 -0.47,4.81 -0.7,12.04 -0.7,21.67l0 68.76 -62.37 0 0 -166.65z"/>
  <path id="5" class="fil0" d="M1345.56 124.37l-62.07 0c0.77,-12.97 3.52,-22.72 8.22,-29.42 7.05,-9.92 16.62,-16.73 28.78,-20.26 16.03,-4.69 44.1,-7.04 84.14,-7.04 31.01,0 51.92,1.47 62.84,4.46 9.98,2.64 18.2,8.69 24.78,18.09 6.28,8.98 9.45,25.07 9.45,48.38l0 100.3 -59.89 0 0 -22.55 -3 0c-4.58,9.57 -11.86,16.5 -21.84,20.79 -5.93,2.64 -14.39,4.35 -25.43,5.11 -8.69,0.59 -22.84,0.88 -42.46,0.88 -21.72,0 -37.28,-1.82 -46.56,-5.52 -11.1,-4.46 -18.5,-11.74 -22.14,-21.96 -2.29,-6.52 -3.47,-14.62 -3.47,-24.2 0,-19.37 4.76,-33.35 14.27,-41.92 10.4,-9.28 26.9,-14.45 49.51,-15.45 13.15,-0.58 30,-0.88 50.5,-0.88 14.68,0 25.54,1.23 32.53,3.76 4.46,1.7 8.75,4.82 12.86,9.28l2.76 0 0 -8.87c0,-11.22 -1.59,-18.56 -4.82,-21.96 -3.46,-3.82 -9.8,-6.17 -19.08,-7.05 -3.7,-0.35 -9.63,-0.53 -17.91,-0.53 -24.9,0 -39.76,1.12 -44.57,3.41 -3.99,1.82 -6.46,6.22 -7.4,13.15zm41.87 44.4c-20.96,0 -34,1.23 -39.05,3.76 -6.05,2.93 -9.1,7.57 -9.1,13.85 0,7.4 3.87,12.16 11.68,14.33 6.17,1.7 16.68,2.59 31.48,2.59 19.26,0 33,-1 41.22,-2.94 9.75,-2.23 14.62,-7.57 14.62,-15.85 0,-6.64 -3.4,-11.16 -10.16,-13.69 -3.52,-1.35 -17.08,-2.05 -40.69,-2.05z"/>
  <path class="fil1" d="M33.97 287.67l14.16 0 0 6.14 0.86 0c0.96,-1.87 2.19,-3.31 3.65,-4.3 2.86,-1.91 7.35,-2.86 13.45,-2.86 5.94,0 10.46,0.62 13.58,1.88 1.69,0.68 3.24,1.76 4.66,3.21 1.41,1.46 2.42,3.03 3.03,4.72 0.84,2.3 1.28,4.89 1.33,7.73 0.03,1.37 0.05,3.2 0.05,5.5l0 18.33 -15.1 0 0 -18.33c0,-3.25 -0.14,-5.5 -0.41,-6.75 -0.44,-2.1 -1.72,-3.48 -3.83,-4.12 -1.8,-0.56 -4.39,-0.83 -7.77,-0.83 -5.21,0 -8.66,0.88 -10.35,2.66 -1.14,1.2 -1.84,3.1 -2.08,5.7 -0.09,0.9 -0.13,2.75 -0.13,5.55l0 16.12 -15.1 0 0 -40.35z"/>
  <path id="1" class="fil1" d="M139.45 286.65c7.72,0 13.54,0.41 17.44,1.25 4.21,0.88 7.17,2.97 8.86,6.28 0.95,1.82 1.51,3.77 1.66,5.82 0.18,1.92 0.26,4.26 0.26,7.04 0,5.48 -0.27,9.28 -0.8,11.35 -1.13,4.58 -3.88,7.58 -8.23,9.03 -3.31,1.08 -9.79,1.62 -19.47,1.62 -8.56,0 -14.66,-0.42 -18.33,-1.29 -4.41,-1.02 -7.33,-3.43 -8.79,-7.19 -0.65,-1.78 -1.06,-3.64 -1.19,-5.58 -0.17,-2.39 -0.25,-5.03 -0.25,-7.94 0,-5.08 0.31,-8.62 0.95,-10.61 1.39,-4.19 4.26,-6.94 8.61,-8.25 3.5,-1.02 9.93,-1.53 19.28,-1.53zm-0.33 11.34c-4.87,0 -8.19,0.39 -9.93,1.17 -1.38,0.64 -2.32,1.72 -2.82,3.25 -0.44,1.3 -0.67,3.23 -0.67,5.79 0,2.83 0.27,4.81 0.8,5.91 0.74,1.53 2.47,2.56 5.19,3.09 1.82,0.33 4.35,0.5 7.59,0.5 5.29,0 8.8,-0.51 10.51,-1.54 1.16,-0.69 1.94,-1.76 2.33,-3.21 0.3,-1.14 0.45,-2.89 0.45,-5.25 0,-3.08 -0.34,-5.23 -1.04,-6.42 -0.78,-1.38 -2.5,-2.32 -5.18,-2.79 -1.89,-0.33 -4.3,-0.5 -7.23,-0.5z"/>
  <polygon id="2" class="fil1" points="184.99,287.67 200.96,287.67 210.2,316.99 220.9,287.67 235.19,287.67 246.09,316.53 255.51,287.67 271.63,287.67 256.6,328.02 236.14,328.02 228.18,304.29 220.06,328.02 199.95,328.02 "/>
  <path id="3" class="fil1" d="M317.71 286.65c7.72,0 13.53,0.41 17.44,1.25 4.21,0.88 7.16,2.97 8.86,6.28 0.95,1.82 1.5,3.77 1.66,5.82 0.17,1.92 0.26,4.26 0.26,7.04 0,5.48 -0.27,9.28 -0.8,11.35 -1.14,4.58 -3.88,7.58 -8.23,9.03 -3.31,1.08 -9.8,1.62 -19.48,1.62 -8.56,0 -14.66,-0.42 -18.32,-1.29 -4.41,-1.02 -7.34,-3.43 -8.79,-7.19 -0.65,-1.78 -1.07,-3.64 -1.19,-5.58 -0.18,-2.39 -0.26,-5.03 -0.26,-7.94 0,-5.08 0.31,-8.62 0.95,-10.61 1.4,-4.19 4.27,-6.94 8.62,-8.25 3.5,-1.02 9.92,-1.53 19.28,-1.53zm-0.33 11.34c-4.88,0 -8.19,0.39 -9.94,1.17 -1.38,0.64 -2.32,1.72 -2.81,3.25 -0.44,1.3 -0.67,3.23 -0.67,5.79 0,2.83 0.27,4.81 0.79,5.91 0.74,1.53 2.48,2.56 5.19,3.09 1.82,0.33 4.35,0.5 7.6,0.5 5.28,0 8.8,-0.51 10.5,-1.54 1.17,-0.69 1.95,-1.76 2.33,-3.21 0.3,-1.14 0.46,-2.89 0.46,-5.25 0,-3.08 -0.34,-5.23 -1.04,-6.42 -0.78,-1.38 -2.5,-2.32 -5.19,-2.79 -1.89,-0.33 -4.29,-0.5 -7.22,-0.5z"/>
  <path id="4" class="fil1" d="M406.82 311.81l15.37 0c-0.12,3.09 -0.42,5.5 -0.93,7.28 -0.52,1.95 -1.5,3.65 -2.95,5.12 -1.44,1.48 -3.16,2.53 -5.17,3.17 -2.54,0.78 -5.38,1.25 -8.48,1.41 -3.39,0.17 -7.05,0.25 -10.99,0.25 -7.45,0 -12.94,-0.47 -16.49,-1.42 -4.2,-1.08 -6.98,-3.2 -8.38,-6.33 -1.22,-2.73 -1.83,-7.33 -1.83,-13.8 0,-6 0.61,-10.35 1.83,-13.05 1.47,-3.26 4.21,-5.4 8.21,-6.46 3.64,-0.95 9.48,-1.42 17.53,-1.42 8.3,0 14.4,0.56 18.28,1.67 3.99,1.12 6.65,3.31 7.94,6.59 0.84,2.12 1.33,5.19 1.47,9.23l-15.37 0c-0.2,-1.85 -0.77,-3.17 -1.71,-3.95 -1.71,-1.47 -5.27,-2.19 -10.64,-2.19 -4.47,0 -7.59,0.41 -9.37,1.25 -1.15,0.58 -1.98,1.59 -2.45,3.01 -0.41,1.37 -0.62,3.33 -0.62,5.86 0,3.04 0.34,5.17 1.04,6.4 0.78,1.38 2.45,2.29 5.03,2.77 1.75,0.33 3.94,0.5 6.57,0.5 5.47,0 8.95,-0.7 10.49,-2.09 0.82,-0.78 1.36,-2.05 1.62,-3.8z"/>
  <polygon id="5" class="fil1" points="443.97,287.67 490.37,287.67 490.37,299.2 465.45,317.44 491.23,317.44 491.23,328.02 442.18,328.02 442.18,317.53 468.07,297.91 443.97,297.91 "/>
  <path id="6" class="fil1" d="M550.66 315.14l15.04 0c-0.43,4.36 -1.75,7.51 -4.01,9.42 -2.05,1.77 -5.11,2.99 -9.16,3.66 -3.3,0.55 -8.3,0.82 -14.98,0.82 -7.2,0 -12.61,-0.5 -16.25,-1.49 -3.97,-1.08 -6.67,-3.27 -8.12,-6.54 -0.84,-1.86 -1.34,-3.8 -1.49,-5.83 -0.17,-2.05 -0.26,-4.43 -0.26,-7.15 0,-5.43 0.34,-9.24 1.04,-11.4 1.31,-4.27 4.17,-7.08 8.59,-8.45 3.32,-1.02 9.31,-1.53 17.94,-1.53 6.72,0 11.46,0.24 14.2,0.71 3.06,0.53 5.47,1.39 7.25,2.61 1.76,1.23 3.09,2.93 3.95,5.12 1.08,2.7 1.62,6.47 1.62,11.33 0,1 -0.02,2.58 -0.08,4.71l-39.44 0c0,1.96 0.13,3.44 0.41,4.41 0.5,1.72 1.82,2.8 3.96,3.24 2,0.41 4.59,0.62 7.74,0.62 4.23,0 7.28,-0.24 9.17,-0.71 1.58,-0.35 2.53,-1.53 2.88,-3.55zm0.21 -12.28c-0.03,-1.31 -0.1,-2.25 -0.21,-2.8 -0.29,-1.68 -1.28,-2.78 -3,-3.27 -1.9,-0.56 -4.71,-0.84 -8.46,-0.84 -5.89,0 -9.51,0.62 -10.86,1.89 -1.14,1.02 -1.75,2.7 -1.84,5.02l24.37 0z"/>
  <path id="7" class="fil1" d="M586.81 315.22l15.37 0c0.11,1.31 0.63,2.28 1.55,2.89 1.58,1.09 5.23,1.64 10.95,1.64 5.67,0 9.25,-0.35 10.74,-1.01 1.34,-0.59 2.01,-1.5 2.01,-2.76 0,-1.4 -0.86,-2.32 -2.55,-2.79 -0.76,-0.2 -5.06,-0.35 -12.86,-0.47 -7.28,0 -11.77,-0.13 -13.47,-0.37 -4.73,-0.64 -7.93,-2.17 -9.59,-4.62 -1.25,-1.83 -1.88,-4.28 -1.88,-7.33 0,-6 2.19,-9.9 6.58,-11.7 3.32,-1.37 10.4,-2.05 21.26,-2.05 7.59,0 13.15,0.35 16.72,1.08 1.93,0.4 3.61,1.12 5.02,2.19 1.39,1.06 2.34,2.34 2.84,3.81 0.45,1.28 0.75,3.07 0.92,5.37l-15.37 0c-0.28,-1.02 -0.62,-1.68 -1.03,-1.96 -1.26,-0.8 -4.43,-1.19 -9.51,-1.19 -5.22,0 -8.68,0.3 -10.37,0.88 -1.31,0.44 -1.96,1.25 -1.96,2.41 0,1.64 1.21,2.53 3.63,2.71 1.89,0.14 8.75,0.25 20.58,0.34 5.67,0.02 9.77,0.98 12.3,2.87 2.56,1.86 3.84,5.1 3.84,9.71 0,3.52 -0.67,6.3 -2.01,8.3 -0.88,1.35 -2.1,2.42 -3.67,3.19 -1.55,0.76 -3.68,1.35 -6.41,1.77 -3.81,0.6 -9.37,0.91 -16.7,0.91 -7.98,0 -13.74,-0.37 -17.29,-1.12 -2.26,-0.5 -4.17,-1.42 -5.74,-2.76 -1.57,-1.33 -2.65,-2.98 -3.23,-4.92 -0.38,-1.38 -0.61,-3.05 -0.67,-5.02z"/>
  <path id="8" class="fil1" d="M664.51 287.67l14.16 0 0 6.14 0.85 0c0.97,-1.87 2.19,-3.31 3.66,-4.3 2.85,-1.91 7.34,-2.86 13.44,-2.86 5.95,0 10.47,0.62 13.58,1.88 1.69,0.68 3.24,1.76 4.66,3.21 1.41,1.46 2.42,3.03 3.03,4.72 0.84,2.3 1.28,4.89 1.34,7.73 0.03,1.37 0.04,3.2 0.04,5.5l0 18.33 -15.1 0 0 -18.33c0,-3.25 -0.14,-5.5 -0.41,-6.75 -0.44,-2.1 -1.72,-3.48 -3.82,-4.12 -1.81,-0.56 -4.4,-0.83 -7.78,-0.83 -5.2,0 -8.66,0.88 -10.35,2.66 -1.14,1.2 -1.83,3.1 -2.08,5.7 -0.08,0.9 -0.12,2.75 -0.12,5.55l0 16.12 -15.1 0 0 -40.35z"/>
  <path id="9" class="fil1" d="M757.59 300.3l-15.03 0c0.19,-3.14 0.85,-5.51 1.99,-7.13 1.71,-2.4 4.02,-4.05 6.97,-4.9 3.88,-1.14 10.67,-1.71 20.37,-1.71 7.51,0 12.57,0.36 15.21,1.08 2.42,0.64 4.41,2.11 6,4.38 1.52,2.18 2.29,6.07 2.29,11.72l0 24.28 -14.5 0 0 -5.46 -0.73 0c-1.1,2.32 -2.87,3.99 -5.28,5.03 -1.44,0.64 -3.49,1.05 -6.16,1.24 -2.1,0.14 -5.53,0.21 -10.28,0.21 -5.26,0 -9.03,-0.44 -11.27,-1.33 -2.69,-1.08 -4.48,-2.85 -5.36,-5.32 -0.56,-1.58 -0.84,-3.54 -0.84,-5.86 0,-4.69 1.15,-8.07 3.45,-10.15 2.52,-2.24 6.52,-3.5 11.99,-3.74 3.18,-0.14 7.26,-0.21 12.22,-0.21 3.56,0 6.19,0.3 7.88,0.91 1.08,0.41 2.12,1.17 3.11,2.24l0.67 0 0 -2.14c0,-2.72 -0.38,-4.49 -1.16,-5.32 -0.84,-0.92 -2.38,-1.49 -4.62,-1.7 -0.9,-0.09 -2.34,-0.13 -4.34,-0.13 -6.03,0 -9.63,0.27 -10.79,0.82 -0.97,0.44 -1.56,1.51 -1.79,3.19zm10.13 10.74c-5.07,0 -8.23,0.3 -9.45,0.91 -1.46,0.72 -2.2,1.84 -2.2,3.36 0,1.79 0.93,2.94 2.83,3.47 1.49,0.41 4.03,0.62 7.62,0.62 4.66,0 7.99,-0.24 9.98,-0.71 2.36,-0.54 3.54,-1.83 3.54,-3.84 0,-1.6 -0.83,-2.7 -2.46,-3.31 -0.86,-0.33 -4.14,-0.5 -9.86,-0.5z"/>
  <path id="10" class="fil1" d="M857.59 298.42l0 -10.75 7.76 0c0.15,-4.11 0.46,-7.06 0.96,-8.87 0.64,-2.42 2.19,-4.41 4.63,-6 1.83,-1.21 4.37,-1.99 7.62,-2.32 1.83,-0.19 4.48,-0.29 7.96,-0.29 2.39,0 4.91,0.04 7.58,0.14l0 9.99c-1.95,-0.04 -3.3,-0.07 -4.08,-0.07 -4.14,0 -6.82,0.57 -8.08,1.71 -0.76,0.72 -1.23,1.96 -1.4,3.71 -0.03,0.34 -0.06,1.01 -0.09,2l14.84 0 0 10.75 -14.84 0 0 29.6 -15.1 0 0 -29.6 -7.76 0z"/>
  <path id="11" class="fil1" d="M943.31 286.65c7.72,0 13.53,0.41 17.44,1.25 4.21,0.88 7.17,2.97 8.86,6.28 0.95,1.82 1.5,3.77 1.66,5.82 0.17,1.92 0.26,4.26 0.26,7.04 0,5.48 -0.27,9.28 -0.8,11.35 -1.14,4.58 -3.88,7.58 -8.23,9.03 -3.31,1.08 -9.8,1.62 -19.48,1.62 -8.56,0 -14.65,-0.42 -18.32,-1.29 -4.41,-1.02 -7.34,-3.43 -8.79,-7.19 -0.65,-1.78 -1.07,-3.64 -1.19,-5.58 -0.17,-2.39 -0.26,-5.03 -0.26,-7.94 0,-5.08 0.31,-8.62 0.95,-10.61 1.4,-4.19 4.27,-6.94 8.62,-8.25 3.5,-1.02 9.92,-1.53 19.28,-1.53zm-0.33 11.34c-4.88,0 -8.19,0.39 -9.94,1.17 -1.38,0.64 -2.31,1.72 -2.81,3.25 -0.44,1.3 -0.67,3.23 -0.67,5.79 0,2.83 0.27,4.81 0.8,5.91 0.73,1.53 2.47,2.56 5.18,3.09 1.82,0.33 4.36,0.5 7.6,0.5 5.28,0 8.8,-0.51 10.5,-1.54 1.17,-0.69 1.95,-1.76 2.33,-3.21 0.3,-1.14 0.46,-2.89 0.46,-5.25 0,-3.08 -0.34,-5.23 -1.04,-6.42 -0.78,-1.38 -2.5,-2.32 -5.19,-2.79 -1.89,-0.33 -4.29,-0.5 -7.22,-0.5z"/>
  <path id="12" class="fil1" d="M999 278.37l15.09 0 0 9.3 23.89 0 0 10.75 -23.89 0 0 11.74c0,3.17 0.23,5.16 0.67,5.96 0.76,1.39 2.53,2.09 5.33,2.09 2.92,0 4.72,-0.67 5.42,-2 0.37,-0.67 0.55,-1.71 0.58,-3.13 0,-0.24 0,-1.04 0,-2.38l13.81 0c-0.06,3.61 -0.29,6.33 -0.67,8.14 -0.38,1.89 -1.2,3.58 -2.4,5.07 -1.21,1.51 -2.66,2.6 -4.35,3.3 -1.92,0.81 -3.97,1.31 -6.13,1.5 -2.3,0.22 -4.81,0.33 -7.51,0.33 -5.7,0 -9.83,-0.41 -12.42,-1.25 -1.78,-0.58 -3.3,-1.55 -4.55,-2.9 -1.25,-1.33 -2.04,-2.87 -2.38,-4.6 -0.32,-1.7 -0.49,-5.07 -0.49,-10.13l0 -11.74 -7.94 0 0 -10.75 7.94 0 0 -9.3z"/>
  <path id="13" class="fil1" d="M1088.71 286.65c7.72,0 13.53,0.41 17.44,1.25 4.21,0.88 7.17,2.97 8.86,6.28 0.95,1.82 1.5,3.77 1.66,5.82 0.17,1.92 0.26,4.26 0.26,7.04 0,5.48 -0.27,9.28 -0.8,11.35 -1.14,4.58 -3.88,7.58 -8.23,9.03 -3.31,1.08 -9.8,1.62 -19.48,1.62 -8.56,0 -14.65,-0.42 -18.32,-1.29 -4.41,-1.02 -7.34,-3.43 -8.79,-7.19 -0.65,-1.78 -1.06,-3.64 -1.19,-5.58 -0.17,-2.39 -0.26,-5.03 -0.26,-7.94 0,-5.08 0.31,-8.62 0.95,-10.61 1.4,-4.19 4.27,-6.94 8.62,-8.25 3.5,-1.02 9.92,-1.53 19.28,-1.53zm-0.33 11.34c-4.88,0 -8.19,0.39 -9.94,1.17 -1.38,0.64 -2.31,1.72 -2.81,3.25 -0.44,1.3 -0.67,3.23 -0.67,5.79 0,2.83 0.27,4.81 0.8,5.91 0.73,1.53 2.47,2.56 5.18,3.09 1.82,0.33 4.36,0.5 7.6,0.5 5.28,0 8.8,-0.51 10.5,-1.54 1.17,-0.69 1.95,-1.76 2.33,-3.21 0.3,-1.14 0.46,-2.89 0.46,-5.25 0,-3.08 -0.34,-5.23 -1.04,-6.42 -0.78,-1.38 -2.5,-2.32 -5.19,-2.79 -1.89,-0.33 -4.29,-0.5 -7.22,-0.5z"/>
  <path id="14" class="fil1" d="M1180.71 287.67l14.16 0 0 37.08c0,3.96 -0.17,6.74 -0.5,8.29 -1.08,5.21 -3.84,8.8 -8.25,10.75 -3.85,1.7 -10.79,2.57 -20.81,2.57 -7.34,0 -12.75,-0.47 -16.28,-1.41 -6.05,-1.63 -9.4,-6.06 -10.04,-13.26l15.37 0 0.13 0.41c0.24,0.79 0.5,1.35 0.75,1.66 0.71,0.86 2.06,1.44 4.04,1.78 1.34,0.21 3.41,0.33 6.24,0.33 4.98,0 8.42,-0.36 10.34,-1.08 1.99,-0.76 3.21,-2.18 3.67,-4.3 0.21,-1.11 0.32,-3.01 0.32,-5.74l0 -3.56 -0.58 0c-1.25,1.98 -2.63,3.39 -4.12,4.23 -1.67,0.89 -3.51,1.46 -5.55,1.72 -2.12,0.24 -4.45,0.37 -6.99,0.37 -5.62,0 -9.85,-0.3 -12.73,-0.88 -4.92,-1.03 -8.26,-3.29 -10.03,-6.79 -1.25,-2.43 -1.88,-6.88 -1.88,-13.35 0,-6.21 0.8,-10.56 2.38,-13.06 2.06,-3.3 5.71,-5.35 10.96,-6.11 2.97,-0.44 6.79,-0.67 11.45,-0.67 6,0 10.27,0.64 12.8,1.9 1.56,0.81 3.03,2.28 4.42,4.41l0.73 0 0 -5.29zm-13.89 10.32c-5.56,0 -9.23,0.5 -11.01,1.51 -1.16,0.65 -1.92,1.68 -2.29,3.03 -0.3,1.09 -0.45,2.69 -0.45,4.8 0,2.75 0.38,4.71 1.16,5.87 0.91,1.37 2.82,2.24 5.71,2.64 1.77,0.21 3.88,0.32 6.29,0.32 5.72,0 9.46,-0.61 11.21,-1.83 1.05,-0.73 1.73,-1.79 2.03,-3.21 0.2,-0.86 0.3,-2.22 0.3,-4.08 0,-2.81 -0.32,-4.77 -0.95,-5.88 -0.73,-1.3 -2.29,-2.19 -4.71,-2.63 -1.81,-0.35 -4.24,-0.54 -7.29,-0.54z"/>
  <path id="15" class="fil1" d="M1217.81 287.67l14.16 0 0 6.06 0.81 0c1.14,-2.05 2.52,-3.57 4.13,-4.59 2.64,-1.67 6.47,-2.49 11.47,-2.49 6.67,0 11.19,1.51 13.55,4.52 1.86,2.36 2.8,6.07 2.8,11.13 0,0.67 -0.04,1.76 -0.13,3.28l-14.2 0c0,-2.34 -0.24,-3.99 -0.74,-4.93 -0.98,-1.78 -3.38,-2.66 -7.21,-2.66 -3.58,0 -6.13,0.97 -7.62,2.92 -0.95,1.21 -1.55,3.1 -1.79,5.64 -0.09,0.98 -0.13,2.55 -0.13,4.71l0 16.76 -15.1 0 0 -40.35z"/>
  <path id="16" class="fil1" d="M1300.43 300.3l-15.03 0c0.19,-3.14 0.86,-5.51 1.99,-7.13 1.71,-2.4 4.03,-4.05 6.97,-4.9 3.88,-1.14 10.68,-1.71 20.37,-1.71 7.51,0 12.57,0.36 15.21,1.08 2.42,0.64 4.41,2.11 6,4.38 1.52,2.18 2.29,6.07 2.29,11.72l0 24.28 -14.5 0 0 -5.46 -0.72 0c-1.11,2.32 -2.88,3.99 -5.29,5.03 -1.44,0.64 -3.49,1.05 -6.16,1.24 -2.1,0.14 -5.53,0.21 -10.28,0.21 -5.26,0 -9.03,-0.44 -11.27,-1.33 -2.69,-1.08 -4.48,-2.85 -5.36,-5.32 -0.56,-1.58 -0.84,-3.54 -0.84,-5.86 0,-4.69 1.15,-8.07 3.45,-10.15 2.52,-2.24 6.52,-3.5 11.99,-3.74 3.18,-0.14 7.26,-0.21 12.23,-0.21 3.55,0 6.18,0.3 7.87,0.91 1.08,0.41 2.12,1.17 3.11,2.24l0.67 0 0 -2.14c0,-2.72 -0.38,-4.49 -1.16,-5.32 -0.84,-0.92 -2.38,-1.49 -4.62,-1.7 -0.9,-0.09 -2.33,-0.13 -4.34,-0.13 -6.03,0 -9.62,0.27 -10.79,0.82 -0.97,0.44 -1.56,1.51 -1.79,3.19zm10.14 10.74c-5.08,0 -8.24,0.3 -9.46,0.91 -1.46,0.72 -2.2,1.84 -2.2,3.36 0,1.79 0.94,2.94 2.83,3.47 1.49,0.41 4.04,0.62 7.62,0.62 4.66,0 7.99,-0.24 9.98,-0.71 2.36,-0.54 3.54,-1.83 3.54,-3.84 0,-1.6 -0.83,-2.7 -2.46,-3.31 -0.85,-0.33 -4.14,-0.5 -9.85,-0.5z"/>
  <path id="17" class="fil1" d="M1357.78 298.42l0 -10.75 7.76 0c0.15,-4.11 0.46,-7.06 0.96,-8.87 0.64,-2.42 2.19,-4.41 4.63,-6 1.84,-1.21 4.37,-1.99 7.62,-2.32 1.84,-0.19 4.48,-0.29 7.96,-0.29 2.39,0 4.91,0.04 7.58,0.14l0 9.99c-1.95,-0.04 -3.3,-0.07 -4.08,-0.07 -4.14,0 -6.82,0.57 -8.07,1.71 -0.77,0.72 -1.24,1.96 -1.41,3.71 -0.03,0.34 -0.06,1.01 -0.09,2l14.85 0 0 10.75 -14.85 0 0 29.6 -15.1 0 0 -29.6 -7.76 0z"/>
  <path id="18" class="fil1" d="M1415.52 287.67l15.1 0 0 40.35 -15.1 0 0 -40.35zm0 -16.55l15.1 0 0 11.35 -15.1 0 0 -11.35z"/>
  <path id="19" class="fil1" d="M1469.19 300.3l-15.03 0c0.19,-3.14 0.86,-5.51 1.99,-7.13 1.71,-2.4 4.03,-4.05 6.97,-4.9 3.88,-1.14 10.68,-1.71 20.37,-1.71 7.51,0 12.57,0.36 15.21,1.08 2.42,0.64 4.41,2.11 6,4.38 1.52,2.18 2.29,6.07 2.29,11.72l0 24.28 -14.5 0 0 -5.46 -0.73 0c-1.1,2.32 -2.87,3.99 -5.28,5.03 -1.44,0.64 -3.49,1.05 -6.16,1.24 -2.1,0.14 -5.53,0.21 -10.28,0.21 -5.26,0 -9.03,-0.44 -11.27,-1.33 -2.69,-1.08 -4.48,-2.85 -5.36,-5.32 -0.56,-1.58 -0.84,-3.54 -0.84,-5.86 0,-4.69 1.15,-8.07 3.45,-10.15 2.52,-2.24 6.52,-3.5 11.99,-3.74 3.18,-0.14 7.26,-0.21 12.23,-0.21 3.55,0 6.18,0.3 7.87,0.91 1.08,0.41 2.12,1.17 3.11,2.24l0.67 0 0 -2.14c0,-2.72 -0.38,-4.49 -1.16,-5.32 -0.84,-0.92 -2.38,-1.49 -4.62,-1.7 -0.9,-0.09 -2.34,-0.13 -4.34,-0.13 -6.03,0 -9.62,0.27 -10.79,0.82 -0.97,0.44 -1.56,1.51 -1.79,3.19zm10.13 10.74c-5.07,0 -8.23,0.3 -9.45,0.91 -1.46,0.72 -2.2,1.84 -2.2,3.36 0,1.79 0.94,2.94 2.83,3.47 1.49,0.41 4.04,0.62 7.62,0.62 4.66,0 7.99,-0.24 9.98,-0.71 2.36,-0.54 3.54,-1.83 3.54,-3.84 0,-1.6 -0.83,-2.7 -2.46,-3.31 -0.86,-0.33 -4.14,-0.5 -9.86,-0.5z"/>
  <polygon class="fil2" points="1542.26,240.41 1542.26,213.82 1532.33,213.82 1532.33,210.28 1556.19,210.28 1556.19,213.82 1546.26,213.82 1546.26,240.41 "/>
  <path id="1" class="fil2" d="M1560.22 240.41l0 -30.13 5.98 0 7.12 21.33c0.66,1.98 1.14,3.47 1.44,4.46 0.34,-1.1 0.88,-2.71 1.61,-4.83l7.25 -20.96 5.34 0 0 30.13 -3.83 0 0 -25.2 -8.79 25.2 -3.59 0 -8.7 -25.67 0 25.67 -3.83 0z"/>
 </g>
</svg>
